# xmcd
#
# Track frame offsets: 
#        150
#        17210
#        36279
#        54042
#        73566
#        91934
#        111158
#        131322
#        150099
#        172409
#
# Disc length: 2529 seconds
#
# Revision: 0
# Processed by: cddbd v1.5.2PL0 Copyright (c) Steve Scherf et al.
# Submitted via: ExactAudioCopy v0.90b4
#
DISCID=7609df0a
DTITLE=El Gringo - En Busqueda
DYEAR=2007
DGENRE=Latin
TTITLE0=En Busqueda
TTITLE1=Loco Por Ella
TTITLE2=Mientes
TTITLE3=Soy Tuyo
TTITLE4=Tantos Golpes
TTITLE5=Un Tiempo Atras
TTITLE6=Asesina De Amor (f. Ronald Nuñez)
TTITLE7=Oh Navidad
TTITLE8=No Me Da Pena
TTITLE9=Santo Domingo Querido
EXTD=
EXTT0=
EXTT1=
EXTT2=
EXTT3=
EXTT4=
EXTT5=
EXTT6=
EXTT7=
EXTT8=
EXTT9=
PLAYORDER=
